<?xml version="1.0" standalone="no"?>
<!DOCTYPE svg PUBLIC "-//W3C//DTD SVG 20010904//EN"
 "http://www.w3.org/TR/2001/REC-SVG-20010904/DTD/svg10.dtd">
<svg version="1.0" xmlns="http://www.w3.org/2000/svg"
 width="440.000000pt" height="440.000000pt" viewBox="0 0 440.000000 440.000000"
 preserveAspectRatio="xMidYMid meet">
<metadata>
Created by potrace 1.14, written by Peter Selinger 2001-2017
</metadata>
<g transform="translate(0.000000,440.000000) scale(0.100000,-0.100000)"
fill="#000000" stroke="none">
<path d="M2025 4233 c-263 -28 -487 -91 -720 -203 -100 -48 -287 -159 -305
-180 -3 -3 -15 -13 -27 -21 -47 -32 -142 -117 -229 -205 -311 -313 -520 -750
-570 -1194 -18 -159 -10 -408 19 -590 25 -155 103 -384 187 -551 45 -90 134
-239 143 -239 2 0 3 71 3 158 -1 142 -4 162 -25 207 -66 143 -125 332 -145
470 -4 22 -10 65 -15 95 -12 73 -12 358 0 440 5 36 12 83 15 105 3 22 14 76
25 120 131 526 478 967 959 1217 180 94 331 144 555 184 175 31 469 29 640 -5
61 -12 115 -23 120 -25 6 -1 30 -8 55 -15 219 -60 479 -196 667 -348 237 -191
435 -459 551 -744 36 -87 79 -216 88 -264 44 -221 48 -265 48 -450 0 -178 -8
-254 -45 -415 -26 -112 -53 -193 -106 -318 l-44 -103 3 -156 3 -156 41 64
c173 271 276 573 309 904 7 66 8 348 1 380 -2 11 -7 47 -10 80 -4 33 -9 67
-11 75 -2 8 -7 31 -10 50 -12 73 -48 198 -87 305 -173 472 -524 869 -980 1108
-179 93 -417 170 -628 203 -94 14 -394 25 -475 17z"/>
<path d="M1289 3603 c-4 -25 -3 -2313 1 -2313 3 1 113 143 245 318 132 174
314 413 404 532 90 118 184 243 210 277 25 33 49 60 52 57 3 -2 87 -110 185
-241 98 -131 181 -240 185 -243 3 -3 75 -97 160 -210 84 -113 159 -211 166
-218 9 -9 53 -12 177 -10 l166 3 -251 330 c-138 182 -266 350 -285 375 l-33
45 67 33 c86 43 124 72 192 142 66 69 123 162 152 250 27 82 34 276 14 360
-63 258 -262 449 -525 505 -52 11 -196 14 -673 15 -335 0 -609 -3 -609 -7z
m1265 -283 c76 -26 113 -47 162 -92 165 -152 166 -422 2 -580 -41 -39 -141
-92 -195 -103 -30 -6 -33 -3 -139 137 -59 79 -124 164 -143 190 -20 26 -39 47
-42 47 -4 1 -52 -59 -107 -131 -232 -307 -344 -454 -355 -468 -7 -9 -48 -64
-92 -122 -44 -59 -83 -107 -86 -108 -7 0 -9 1231 -2 1243 3 4 216 7 475 6 425
-1 475 -2 522 -19z"/>
<path d="M800 3019 c-63 -98 -123 -192 -132 -207 -16 -26 -18 -101 -18 -1060
-1 -568 1 -1036 4 -1040 5 -9 179 -8 194 2 7 4 70 84 142 178 l130 171 -1 220
c0 120 -5 215 -9 211 -4 -5 -46 -60 -93 -122 -47 -62 -87 -109 -90 -105 -2 5
-3 441 -3 971 1 529 -1 962 -4 962 -3 -1 -57 -82 -120 -181z"/>
<path d="M3472 2235 c0 -531 -2 -968 -4 -970 -2 -3 -28 26 -56 63 l-52 68
-165 1 c-91 0 -165 -3 -163 -8 10 -29 514 -679 527 -680 19 -1 150 -1 172 0
14 1 15 106 14 1039 l-1 1038 -54 85 c-115 179 -203 314 -210 322 -4 5 -8
-426 -8 -958z"/>
<path d="M2085 1540 c-93 -21 -171 -93 -199 -185 -10 -30 -16 -60 -14 -67 3
-9 41 -12 136 -13 l131 0 3 95 c3 110 -3 175 -17 176 -5 1 -23 -2 -40 -6z"/>
<path d="M2259 1547 c-3 -5 -5 -253 -2 -262 4 -11 242 -13 260 -2 14 9 -7 94
-32 135 -39 62 -119 114 -192 125 -18 3 -34 5 -34 4z"/>
<path d="M1880 1172 c-6 -2 -10 -57 -10 -135 l0 -132 134 -1 134 0 4 40 c1 23
1 84 -2 136 l-5 95 -123 0 c-67 0 -127 -1 -132 -3z"/>
<path d="M2269 1172 c-13 -2 -15 -25 -15 -132 1 -72 3 -131 6 -131 3 -1 62 -2
133 -3 81 -1 127 2 128 9 4 37 3 248 -1 253 -5 7 -221 10 -251 4z"/>
<path d="M981 673 l-50 -65 42 -32 c246 -186 577 -330 882 -381 145 -25 420
-35 525 -21 19 3 58 8 85 11 230 28 471 105 692 221 75 40 245 150 281 182 26
23 27 22 -32 99 l-39 51 -116 -78 c-328 -221 -685 -330 -1068 -325 -168 2
-229 8 -361 36 -183 40 -401 119 -524 192 -29 18 -65 38 -78 45 -14 7 -62 39
-107 72 l-82 58 -50 -65z"/>
</g>
</svg>
